<svg width="42" height="36" viewBox="0 0 42 36" fill="none" xmlns="http://www.w3.org/2000/svg">
<path d="M26.0931 29.0164L23.5201 33.4834C23.1504 34.1266 22.6177 34.6609 21.9756 35.0324C21.3335 35.4039 20.6048 35.5996 19.863 35.5996C19.1212 35.5996 18.3925 35.4039 17.7504 35.0324C17.1083 34.6609 16.5756 34.1266 16.2059 33.4834L3.08337 10.7394C2.97884 10.5182 2.93192 10.2742 2.94696 10.0301C2.96201 9.7859 3.03853 9.54952 3.16942 9.34287C3.30032 9.13622 3.48133 8.96601 3.69563 8.84807C3.90994 8.73013 4.15059 8.66828 4.3952 8.66827H11.8781L19.863 22.5163L23.6593 29.1261C23.7987 29.3205 23.9842 29.4773 24.1991 29.5825C24.4139 29.6876 24.6516 29.7379 24.8906 29.7287C25.1297 29.7195 25.3627 29.6511 25.5689 29.5298C25.7751 29.4084 25.948 29.2378 26.072 29.0333L26.0931 29.0164Z" fill="#FF7F3A"/>
<path d="M26.0931 29.0164L23.5201 33.4834C23.1504 34.1266 22.6177 34.6609 21.9756 35.0324C21.3335 35.4039 20.6048 35.5996 19.863 35.5996C19.1212 35.5996 18.3925 35.4039 17.7504 35.0324C17.1083 34.6609 16.5756 34.1266 16.2059 33.4834L3.08337 10.7394C2.97884 10.5182 2.93192 10.2742 2.94696 10.0301C2.96201 9.7859 3.03853 9.54952 3.16942 9.34287C3.30032 9.13622 3.48133 8.96601 3.69563 8.84807C3.90994 8.73013 4.15059 8.66828 4.3952 8.66827H11.8781L19.863 22.5163L23.6593 29.1261C23.7987 29.3205 23.9842 29.4773 24.1991 29.5825C24.4139 29.6876 24.6516 29.7379 24.8906 29.7287C25.1297 29.7195 25.3627 29.6511 25.5689 29.5298C25.7751 29.4084 25.948 29.2378 26.072 29.0333L26.0931 29.0164Z" fill="url(#paint0_linear_153_6893)"/>
<path d="M40.3207 0.0169506C40.5768 0.0149608 40.8289 0.0807756 41.0513 0.207711C41.2737 0.334646 41.4585 0.518181 41.5871 0.739674C41.7156 0.961167 41.7832 1.21273 41.7831 1.46881C41.7829 1.72489 41.715 1.97637 41.5862 2.19771L26.0931 29.0164C25.9645 29.2291 25.7831 29.4049 25.5666 29.5268C25.35 29.6487 25.1057 29.7127 24.8572 29.7124C24.6261 29.7202 24.3967 29.6702 24.1898 29.5671C23.9829 29.464 23.8049 29.311 23.6719 29.1219C22.6806 27.5949 20.116 22.9634 19.8756 22.5332C19.8692 22.5231 19.8658 22.5114 19.8658 22.4995C19.8658 22.4875 19.8692 22.4758 19.8756 22.4657L31.6146 2.14288C31.9899 1.49962 32.5276 0.966237 33.1739 0.596104C33.8201 0.225971 34.5522 0.0320746 35.297 0.033823L40.3207 0.0169506Z" fill="#FE5435"/>
<path d="M40.3207 0.0169506C40.5768 0.0149608 40.8289 0.0807756 41.0513 0.207711C41.2737 0.334646 41.4585 0.518181 41.5871 0.739674C41.7156 0.961167 41.7832 1.21273 41.7831 1.46881C41.7829 1.72489 41.715 1.97637 41.5862 2.19771L26.0931 29.0164C25.9645 29.2291 25.7831 29.4049 25.5666 29.5268C25.35 29.6487 25.1057 29.7127 24.8572 29.7124C24.6261 29.7202 24.3967 29.6702 24.1898 29.5671C23.9829 29.464 23.8049 29.311 23.6719 29.1219C22.6806 27.5949 20.116 22.9634 19.8756 22.5332C19.8692 22.5231 19.8658 22.5114 19.8658 22.4995C19.8658 22.4875 19.8692 22.4758 19.8756 22.4657L31.6146 2.14288C31.9899 1.49962 32.5276 0.966237 33.1739 0.596104C33.8201 0.225971 34.5522 0.0320746 35.297 0.033823L40.3207 0.0169506Z" fill="url(#paint1_linear_153_6893)"/>
<path d="M27.1729 2.1977L24.6421 6.54235C24.2664 7.18622 23.728 7.72 23.081 8.09017C22.4339 8.46034 21.7009 8.65389 20.9554 8.6514H4.39516C4.15162 8.65353 3.91253 8.71692 3.69992 8.83574C3.48732 8.95456 3.30805 9.12499 3.17863 9.3313C3.0492 9.53762 2.9738 9.7732 2.95935 10.0163C2.94491 10.2594 2.9919 10.5023 3.09598 10.7225L0.56512 6.32722C0.194729 5.68569 -0.000180112 4.95792 1.24888e-07 4.21714C0.000180361 3.47636 0.195444 2.74869 0.566147 2.10734C0.93685 1.46598 1.46992 0.933563 2.11172 0.563642C2.75353 0.19372 3.48144 -0.000656429 4.22222 6.57364e-05H25.9075C26.1656 -0.00238693 26.4196 0.0638335 26.6437 0.191938C26.8677 0.320043 27.0537 0.505424 27.1824 0.729075C27.3112 0.952726 27.3782 1.2066 27.3765 1.46468C27.3749 1.72275 27.3046 1.97573 27.1729 2.1977Z" fill="#FF7F3A"/>
<path d="M27.1729 2.1977L24.6421 6.54235C24.2664 7.18622 23.728 7.72 23.081 8.09017C22.4339 8.46034 21.7009 8.65389 20.9554 8.6514H4.39516C4.15162 8.65353 3.91253 8.71692 3.69992 8.83574C3.48732 8.95456 3.30805 9.12499 3.17863 9.3313C3.0492 9.53762 2.9738 9.7732 2.95935 10.0163C2.94491 10.2594 2.9919 10.5023 3.09598 10.7225L0.56512 6.32722C0.194729 5.68569 -0.000180112 4.95792 1.24888e-07 4.21714C0.000180361 3.47636 0.195444 2.74869 0.566147 2.10734C0.93685 1.46598 1.46992 0.933563 2.11172 0.563642C2.75353 0.19372 3.48144 -0.000656429 4.22222 6.57364e-05H25.9075C26.1656 -0.00238693 26.4196 0.0638335 26.6437 0.191938C26.8677 0.320043 27.0537 0.505424 27.1824 0.729075C27.3112 0.952726 27.3782 1.2066 27.3765 1.46468C27.3749 1.72275 27.3046 1.97573 27.1729 2.1977Z" fill="url(#paint2_linear_153_6893)"/>
<defs>
<linearGradient id="paint0_linear_153_6893" x1="1.26115" y1="-6.7025" x2="19.8377" y2="30.3536" gradientUnits="userSpaceOnUse">
<stop offset="0.33" stop-color="#FE5435"/>
<stop offset="0.47" stop-color="#FD5E26" stop-opacity="0.68"/>
<stop offset="0.62" stop-color="#FD6916" stop-opacity="0.32"/>
<stop offset="0.74" stop-color="#FC6F0B" stop-opacity="0.09"/>
<stop offset="0.79" stop-color="#FC7207" stop-opacity="0"/>
</linearGradient>
<linearGradient id="paint1_linear_153_6893" x1="10.5451" y1="41.7509" x2="47.4114" y2="-10.9712" gradientUnits="userSpaceOnUse">
<stop offset="0.27" stop-color="#F23C3A"/>
<stop offset="0.28" stop-color="#F23D39" stop-opacity="0.98"/>
<stop offset="0.36" stop-color="#F4492D" stop-opacity="0.75"/>
<stop offset="0.44" stop-color="#F65423" stop-opacity="0.55"/>
<stop offset="0.52" stop-color="#F85D1A" stop-opacity="0.38"/>
<stop offset="0.6" stop-color="#FA6513" stop-opacity="0.24"/>
<stop offset="0.69" stop-color="#FB6B0E" stop-opacity="0.14"/>
<stop offset="0.78" stop-color="#FB6F0A" stop-opacity="0.06"/>
<stop offset="0.87" stop-color="#FC7108" stop-opacity="0.01"/>
<stop offset="0.97" stop-color="#FC7207" stop-opacity="0"/>
</linearGradient>
<linearGradient id="paint2_linear_153_6893" x1="-3.21852" y1="5.37815" x2="24.1823" y2="5.37815" gradientUnits="userSpaceOnUse">
<stop stop-color="#FFCA54"/>
<stop offset="0.18" stop-color="#FEB541" stop-opacity="0.76"/>
<stop offset="0.39" stop-color="#FD9D2D" stop-opacity="0.49"/>
<stop offset="0.59" stop-color="#FD8B1D" stop-opacity="0.28"/>
<stop offset="0.76" stop-color="#FC7D11" stop-opacity="0.13"/>
<stop offset="0.89" stop-color="#FC750A" stop-opacity="0.03"/>
<stop offset="0.97" stop-color="#FC7207" stop-opacity="0"/>
</linearGradient>
</defs>
</svg>
