<svg id="Capa_1" data-name="Capa 1" xmlns="http://www.w3.org/2000/svg" xmlns:xlink="http://www.w3.org/1999/xlink" viewBox="0 0 308.5 106.1"><defs><style>.cls-1{fill:#ff7f3a;}.cls-2{fill:url(#Degradado_sin_nombre);}.cls-3{fill:#fe5435;}.cls-4{fill:url(#Degradado_sin_nombre_2);}.cls-5{fill:url(#Degradado_sin_nombre_3);}.cls-6{fill:#262840;}</style><linearGradient id="Degradado_sin_nombre" x1="13.56" y1="730.73" x2="57.6" y2="818.58" gradientTransform="translate(0 -736)" gradientUnits="userSpaceOnUse"><stop offset="0.33" stop-color="#fe5435"/><stop offset="0.47" stop-color="#fd5e26" stop-opacity="0.68"/><stop offset="0.62" stop-color="#fd6916" stop-opacity="0.32"/><stop offset="0.74" stop-color="#fc6f0b" stop-opacity="0.09"/><stop offset="0.79" stop-color="#fc7207" stop-opacity="0"/></linearGradient><linearGradient id="Degradado_sin_nombre_2" x1="35.56" y1="845.58" x2="122.96" y2="720.59" gradientTransform="translate(0 -736)" gradientUnits="userSpaceOnUse"><stop offset="0.27" stop-color="#f23c3a"/><stop offset="0.28" stop-color="#f23d39" stop-opacity="0.98"/><stop offset="0.36" stop-color="#f4492d" stop-opacity="0.75"/><stop offset="0.44" stop-color="#f65423" stop-opacity="0.55"/><stop offset="0.52" stop-color="#f85d1a" stop-opacity="0.38"/><stop offset="0.6" stop-color="#fa6513" stop-opacity="0.24"/><stop offset="0.69" stop-color="#fb6b0e" stop-opacity="0.14"/><stop offset="0.78" stop-color="#fb6f0a" stop-opacity="0.06"/><stop offset="0.87" stop-color="#fc7108" stop-opacity="0.01"/><stop offset="0.97" stop-color="#fc7207" stop-opacity="0"/></linearGradient><linearGradient id="Degradado_sin_nombre_3" x1="2.95" y1="759.3" x2="67.9" y2="759.3" gradientTransform="translate(0 -736)" gradientUnits="userSpaceOnUse"><stop offset="0" stop-color="#ffca54"/><stop offset="0.18" stop-color="#feb541" stop-opacity="0.76"/><stop offset="0.39" stop-color="#fd9d2d" stop-opacity="0.49"/><stop offset="0.59" stop-color="#fd8b1d" stop-opacity="0.28"/><stop offset="0.76" stop-color="#fc7d11" stop-opacity="0.13"/><stop offset="0.89" stop-color="#fc750a" stop-opacity="0.03"/><stop offset="0.97" stop-color="#fc7207" stop-opacity="0"/></linearGradient></defs><title>nabla__analyticspositivo_RGB</title><path class="cls-1" d="M72.4,79.4,66.3,90a10.1,10.1,0,0,1-13.7,3.7A10.91,10.91,0,0,1,48.9,90l-31-53.9a3.47,3.47,0,0,1,1.6-4.6,4,4,0,0,1,1.5-.3H38.7L57.7,64l9,15.7a3.48,3.48,0,0,0,4.8.8,10.63,10.63,0,0,0,.9-1.1Z"/><path class="cls-2" d="M72.4,79.4,66.3,90a10.1,10.1,0,0,1-13.7,3.7A10.91,10.91,0,0,1,48.9,90l-31-53.9a3.47,3.47,0,0,1,1.6-4.6,4,4,0,0,1,1.5-.3H38.7L57.7,64l9,15.7a3.48,3.48,0,0,0,4.8.8,10.63,10.63,0,0,0,.9-1.1Z"/><path class="cls-3" d="M106.2,10.7a3.46,3.46,0,0,1,3.5,3.4,4.07,4.07,0,0,1-.5,1.8L72.4,79.4a3.45,3.45,0,0,1-2.9,1.7,3.37,3.37,0,0,1-2.8-1.4c-2.3-3.6-8.4-14.6-9-15.6v-.2L85.5,15.7a10,10,0,0,1,8.7-5Z"/><path class="cls-4" d="M106.2,10.7a3.46,3.46,0,0,1,3.5,3.4,4.07,4.07,0,0,1-.5,1.8L72.4,79.4a3.45,3.45,0,0,1-2.9,1.7,3.37,3.37,0,0,1-2.8-1.4c-2.3-3.6-8.4-14.6-9-15.6v-.2L85.5,15.7a10,10,0,0,1,8.7-5Z"/><path class="cls-1" d="M75,15.8,69,26.1a10,10,0,0,1-8.7,5H21a3.46,3.46,0,0,0-3.4,3.5,3.19,3.19,0,0,0,.3,1.4l-6-10.4a10,10,0,0,1,3.7-13.7,9.83,9.83,0,0,1,5-1.3H72a3.42,3.42,0,0,1,3,5.2Z"/><path class="cls-5" d="M75,15.8,69,26.1a10,10,0,0,1-8.7,5H21a3.46,3.46,0,0,0-3.4,3.5,3.19,3.19,0,0,0,.3,1.4l-6-10.4a10,10,0,0,1,3.7-13.7,9.83,9.83,0,0,1,5-1.3H72a3.42,3.42,0,0,1,3,5.2Z"/><path class="cls-6" d="M123.3,26.2h9.8V31h.7c2.5-3.9,5.8-5.8,9.9-5.8a12.06,12.06,0,0,1,6.7,1.8,11.71,11.71,0,0,1,4.5,5.1,16.87,16.87,0,0,1,1.6,7.3V60.3h-9.8V40.8a7.68,7.68,0,0,0-1.8-5.2,6,6,0,0,0-4.7-2,6.94,6.94,0,0,0-5.1,2.1A7.4,7.4,0,0,0,133,41V60.2h-9.8Z"/><path class="cls-6" d="M168.1,59a14.86,14.86,0,0,1-5.6-6.3,20.83,20.83,0,0,1-2-9.5,20.83,20.83,0,0,1,2-9.5,14.82,14.82,0,0,1,13.9-8.6,12.66,12.66,0,0,1,6.6,1.6,15.38,15.38,0,0,1,4.8,4.7h.7V26.2h9.9V60.3h-9.9V55.2h-.7a14.07,14.07,0,0,1-4.8,4.6,13.32,13.32,0,0,1-6.5,1.6A15.49,15.49,0,0,1,168.1,59Zm17.7-8.8a10,10,0,0,0,2.6-7,9.82,9.82,0,0,0-2.5-6.9,9.05,9.05,0,0,0-12.9,0,10.39,10.39,0,0,0-2.6,6.9,9.56,9.56,0,0,0,2.6,7,8.88,8.88,0,0,0,12.6.3C185.6,50.4,185.7,50.3,185.8,50.2Z"/><path class="cls-6" d="M214.7,55.9H214v4.3h-9.9V10.9H214V30.4h.7a11.19,11.19,0,0,1,4.6-4,14.78,14.78,0,0,1,6.2-1.4,16.22,16.22,0,0,1,8.3,2.3,15.58,15.58,0,0,1,5.8,6.4,21.87,21.87,0,0,1,2.1,9.4,19.06,19.06,0,0,1-2.1,9.4,16,16,0,0,1-5.7,6.4,16.22,16.22,0,0,1-8.3,2.3A12.21,12.21,0,0,1,214.7,55.9Zm14.4-5.8a10.39,10.39,0,0,0,2.6-6.9,9.82,9.82,0,0,0-2.5-6.9,8.69,8.69,0,0,0-6.5-2.8,8.16,8.16,0,0,0-6.5,2.8,10.21,10.21,0,0,0-2.6,6.9,9.48,9.48,0,0,0,2.6,6.9,8.76,8.76,0,0,0,12.5.4c.1-.1.3-.2.4-.4Z"/><path class="cls-6" d="M246,10.9h9.8V60.2H246Z"/><path class="cls-6" d="M267.8,59a14.86,14.86,0,0,1-5.6-6.3,20.83,20.83,0,0,1-2-9.5,20.83,20.83,0,0,1,2-9.5,14.82,14.82,0,0,1,13.9-8.6,12.31,12.31,0,0,1,6.5,1.6,15.38,15.38,0,0,1,4.8,4.7h.7V26.2H298V60.3h-9.8V55.2h-.7a14.07,14.07,0,0,1-4.8,4.6,13.32,13.32,0,0,1-6.5,1.6A15.49,15.49,0,0,1,267.8,59Zm17.7-8.8a10,10,0,0,0,2.6-7,9.82,9.82,0,0,0-2.5-6.9,8.26,8.26,0,0,0-6.5-2.7,8.4,8.4,0,0,0-6.5,2.7,9.56,9.56,0,0,0-2.6,7,9.56,9.56,0,0,0,2.6,7,8.87,8.87,0,0,0,12.6.3,1.38,1.38,0,0,1,.3-.4Z"/><path class="cls-6" d="M127.5,94.4a8.64,8.64,0,0,1-3.1-3.2,10.18,10.18,0,0,1-1.1-4.7,10.49,10.49,0,0,1,1.1-4.7,7.38,7.38,0,0,1,3.1-3.2,8.41,8.41,0,0,1,4.5-1.2,7.3,7.3,0,0,1,6.3,3.4h.3V78.1h2.8V94.9h-2.8V92.1h-.3a7.3,7.3,0,0,1-6.3,3.4A8.36,8.36,0,0,1,127.5,94.4Zm8-2.2a5.41,5.41,0,0,0,2.2-2.3,7.42,7.42,0,0,0,.8-3.4,7.73,7.73,0,0,0-.8-3.4,5.44,5.44,0,0,0-2.2-2.3,6.8,6.8,0,0,0-6.4,0,5.44,5.44,0,0,0-2.2,2.3,7.42,7.42,0,0,0-.8,3.4,7.73,7.73,0,0,0,.8,3.4,6.36,6.36,0,0,0,2.2,2.4,5.87,5.87,0,0,0,3.2.8A6.65,6.65,0,0,0,135.5,92.2Z"/><path class="cls-6" d="M146.5,78.1h2.8v2.3h.3a6.89,6.89,0,0,1,2.3-2.2,6.11,6.11,0,0,1,3-.8,7.51,7.51,0,0,1,3.7.9,5.5,5.5,0,0,1,2.4,2.6,7.9,7.9,0,0,1,.9,3.8V94.8h-2.8v-10a5.13,5.13,0,0,0-1.2-3.5,4.29,4.29,0,0,0-3.4-1.4,4.84,4.84,0,0,0-2.6.7,4.72,4.72,0,0,0-1.9,1.8,4.84,4.84,0,0,0-.7,2.6v9.8h-2.8Z"/><path class="cls-6" d="M170,94.4a8.64,8.64,0,0,1-3.1-3.2,10.18,10.18,0,0,1-1.1-4.7,10.49,10.49,0,0,1,1.1-4.7,7.38,7.38,0,0,1,3.1-3.2,8.41,8.41,0,0,1,4.5-1.2,7.3,7.3,0,0,1,6.3,3.4h.3V78.1h2.8V94.9H181V92.1h-.3a7.3,7.3,0,0,1-6.3,3.4A8.23,8.23,0,0,1,170,94.4Zm8-2.2a5.41,5.41,0,0,0,2.2-2.3,7.42,7.42,0,0,0,.8-3.4,7.73,7.73,0,0,0-.8-3.4,5.44,5.44,0,0,0-2.2-2.3,6.8,6.8,0,0,0-6.4,0,5.44,5.44,0,0,0-2.2,2.3,7.42,7.42,0,0,0-.8,3.4,7.73,7.73,0,0,0,.8,3.4,6.36,6.36,0,0,0,2.2,2.4,5.87,5.87,0,0,0,3.2.8A7.34,7.34,0,0,0,178,92.2Z"/><path class="cls-6" d="M188.9,70.4h2.8V94.9h-2.8Z"/><path class="cls-6" d="M197,102.2a5,5,0,0,1-1.3-.4V99.4a6.83,6.83,0,0,0,2.2.5,3.1,3.1,0,0,0,1.7-.5,3.14,3.14,0,0,0,1.1-1.4,14.63,14.63,0,0,0,.9-2.1l.4-1-7.5-16.8h2.9l5.8,13.1h.3l4.9-13.1h3l-6.7,17.1c-.7,1.7-1.2,3-1.7,3.9a7.1,7.1,0,0,1-1.9,2.3,4.47,4.47,0,0,1-2.8.9A6.64,6.64,0,0,1,197,102.2Z"/><path class="cls-6" d="M217.2,94.1a5.27,5.27,0,0,1-1.3-3.6V80.3h-2.7V78.1h2.7l.6-5.4h2.2v5.4H223v2.2h-4.3V90.5a2.72,2.72,0,0,0,.7,2,2.56,2.56,0,0,0,1.9.8,3.75,3.75,0,0,0,1-.1c.4-.1.7-.1,1-.2v2.2a8.42,8.42,0,0,1-2.7.4A4.68,4.68,0,0,1,217.2,94.1Z"/><path class="cls-6" d="M227.7,74.3a2,2,0,0,1-.6-1.4,1.82,1.82,0,0,1,.6-1.4,1.87,1.87,0,0,1,1.4-.5,2.17,2.17,0,0,1,1.4.5,1.74,1.74,0,0,1,.5,1.4,2,2,0,0,1-.5,1.4,1.82,1.82,0,0,1-1.4.6A2,2,0,0,1,227.7,74.3Zm.1,3.8h2.8V94.9h-2.8Z"/><path class="cls-6" d="M239.3,94.4a8.64,8.64,0,0,1-3.1-3.2,9,9,0,0,1-1.1-4.6,10.49,10.49,0,0,1,1.1-4.7,8.22,8.22,0,0,1,3.1-3.3,8.41,8.41,0,0,1,4.5-1.2,9.57,9.57,0,0,1,3.8.8,7.22,7.22,0,0,1,2.9,2.2,6.33,6.33,0,0,1,1.5,3.2l-2.7.4a4.57,4.57,0,0,0-2-2.9,5.42,5.42,0,0,0-3.5-1.1,6.5,6.5,0,0,0-3.1.8,6.1,6.1,0,0,0-2.2,2.3,7.62,7.62,0,0,0,0,6.8,5.23,5.23,0,0,0,2.1,2.3,5.33,5.33,0,0,0,3.1.8,6.06,6.06,0,0,0,3.5-1.1,5,5,0,0,0,2-2.9l2.7.4a6.93,6.93,0,0,1-1.6,3.2,8.93,8.93,0,0,1-2.9,2.2,9.46,9.46,0,0,1-3.7.8A9.33,9.33,0,0,1,239.3,94.4Z"/><path class="cls-6" d="M257.6,93.9a5.9,5.9,0,0,1-2-4.7h2.7a3.56,3.56,0,0,0,1.4,2.9,5.82,5.82,0,0,0,3.7,1.1,6,6,0,0,0,3-.7,2.26,2.26,0,0,0,1.1-2.1,1.75,1.75,0,0,0-.6-1.5,3.48,3.48,0,0,0-1.5-.7c-.6-.1-1.5-.3-2.7-.4a12.38,12.38,0,0,1-4.9-1.4,3.89,3.89,0,0,1-1.9-3.6,4.52,4.52,0,0,1,1.8-3.8,9.35,9.35,0,0,1,10,.1,4.89,4.89,0,0,1,1.9,4.1H267a2.85,2.85,0,0,0-1.2-2.4,5.27,5.27,0,0,0-3.2-.9,5.57,5.57,0,0,0-3,.8,2.26,2.26,0,0,0-1.1,2.1,2,2,0,0,0,.6,1.5,3.48,3.48,0,0,0,1.5.7c.6.1,1.5.3,2.6.4a25.29,25.29,0,0,1,3.4.7,4.47,4.47,0,0,1,2.4,1.6,4.41,4.41,0,0,1,1,2.9,4.52,4.52,0,0,1-1.8,3.8,8.25,8.25,0,0,1-5,1.4C260.8,95.5,258.9,95,257.6,93.9Z"/></svg>