<svg id="Capa_1" data-name="Capa 1" xmlns="http://www.w3.org/2000/svg" xmlns:xlink="http://www.w3.org/1999/xlink" viewBox="0 0 16.69 14.28"><defs><style>.cls-1{fill:#ff7f3a;}.cls-2{fill:url(#Degradado_sin_nombre_71);}.cls-3{fill:#fe5435;}.cls-4{fill:url(#Degradado_sin_nombre_67);}.cls-5{fill:url(#Degradado_sin_nombre_70);}</style><linearGradient id="Degradado_sin_nombre_71" x1="2.31" y1="-0.46" x2="8.09" y2="11.07" gradientUnits="userSpaceOnUse"><stop offset="0.33" stop-color="#fe5435"/><stop offset="0.47" stop-color="#fd5e26" stop-opacity="0.68"/><stop offset="0.62" stop-color="#fd6916" stop-opacity="0.32"/><stop offset="0.74" stop-color="#fc6f0b" stop-opacity="0.09"/><stop offset="0.79" stop-color="#fc7207" stop-opacity="0"/></linearGradient><linearGradient id="Degradado_sin_nombre_67" x1="5.2" y1="14.61" x2="16.67" y2="-1.79" gradientUnits="userSpaceOnUse"><stop offset="0.27" stop-color="#f23c3a"/><stop offset="0.28" stop-color="#f23d39" stop-opacity="0.98"/><stop offset="0.36" stop-color="#f4492d" stop-opacity="0.75"/><stop offset="0.44" stop-color="#f65423" stop-opacity="0.55"/><stop offset="0.52" stop-color="#f85d1a" stop-opacity="0.38"/><stop offset="0.6" stop-color="#fa6513" stop-opacity="0.24"/><stop offset="0.69" stop-color="#fb6b0e" stop-opacity="0.14"/><stop offset="0.78" stop-color="#fb6f0a" stop-opacity="0.06"/><stop offset="0.87" stop-color="#fc7108" stop-opacity="0.01"/><stop offset="0.97" stop-color="#fc7207" stop-opacity="0"/></linearGradient><linearGradient id="Degradado_sin_nombre_70" x1="0.92" y1="3.3" x2="9.44" y2="3.3" gradientUnits="userSpaceOnUse"><stop offset="0" stop-color="#ffca54"/><stop offset="0.18" stop-color="#feb541" stop-opacity="0.76"/><stop offset="0.39" stop-color="#fd9d2d" stop-opacity="0.49"/><stop offset="0.59" stop-color="#fd8b1d" stop-opacity="0.28"/><stop offset="0.76" stop-color="#fc7d11" stop-opacity="0.13"/><stop offset="0.89" stop-color="#fc750a" stop-opacity="0.03"/><stop offset="0.97" stop-color="#fc7207" stop-opacity="0"/></linearGradient></defs><title>favicon_nabla</title><path class="cls-1" d="M10,10.65,9.24,12A1.32,1.32,0,0,1,7,12L2.88,5a.45.45,0,0,1,0-.2.45.45,0,0,1,.44-.45H5.62L8.1,8.62l1.19,2.06a.45.45,0,0,0,.36.19A.45.45,0,0,0,10,10.65Z"/><path class="cls-2" d="M10,10.65,9.24,12A1.32,1.32,0,0,1,7,12L2.88,5a.45.45,0,0,1,0-.2.45.45,0,0,1,.44-.45H5.62L8.1,8.62l1.19,2.06a.45.45,0,0,0,.36.19A.45.45,0,0,0,10,10.65Z"/><path class="cls-3" d="M14.46,1.63a.45.45,0,0,1,.39.68L10,10.65a.45.45,0,0,1-.39.22.44.44,0,0,1-.37-.19c-.3-.47-1.1-1.91-1.18-2v0l3.65-6.32a1.33,1.33,0,0,1,1.15-.66Z"/><path class="cls-4" d="M14.46,1.63a.45.45,0,0,1,.39.68L10,10.65a.45.45,0,0,1-.39.22.44.44,0,0,1-.37-.19c-.3-.47-1.1-1.91-1.18-2v0l3.65-6.32a1.33,1.33,0,0,1,1.15-.66Z"/><path class="cls-1" d="M10.37,2.31,9.59,3.66a1.31,1.31,0,0,1-1.14.66H3.28a.45.45,0,0,0-.44.45.45.45,0,0,0,0,.2L2.09,3.6a1.32,1.32,0,0,1,1.14-2H10A.45.45,0,0,1,10.37,2.31Z"/><path class="cls-5" d="M10.37,2.31,9.59,3.66a1.31,1.31,0,0,1-1.14.66H3.28a.45.45,0,0,0-.44.45.45.45,0,0,0,0,.2L2.09,3.6a1.32,1.32,0,0,1,1.14-2H10A.45.45,0,0,1,10.37,2.31Z"/></svg>