<svg width="63" height="61" viewBox="0 0 63 61" fill="none" xmlns="http://www.w3.org/2000/svg">
<rect y="0.000106812" width="63" height="61" rx="5.60055" fill="#DCDCDC"/>
<path d="M48.5662 48.3918H19.6908C18.4145 48.3918 17.1904 47.8858 16.2879 46.9853C15.3853 46.0848 14.8783 44.8634 14.8783 43.5899V14.7789C14.8783 14.3544 14.7093 13.9472 14.4084 13.6471C14.1076 13.3469 13.6996 13.1783 13.2741 13.1783C12.8487 13.1783 12.4406 13.3469 12.1398 13.6471C11.8389 13.9472 11.6699 14.3544 11.6699 14.7789V43.5899C11.6725 45.7117 12.5183 47.7458 14.022 49.2461C15.5257 50.7464 17.5643 51.5904 19.6908 51.593H48.5662C48.9916 51.593 49.3997 51.4243 49.7005 51.1242C50.0014 50.824 50.1704 50.4169 50.1704 49.9924C50.1704 49.5679 50.0014 49.1607 49.7005 48.8606C49.3997 48.5604 48.9916 48.3918 48.5662 48.3918Z" fill="#262840"/>
<path d="M21.2951 45.1905C21.7206 45.1905 22.1286 45.0219 22.4294 44.7217C22.7303 44.4215 22.8993 44.0144 22.8993 43.5899V32.3856C22.8993 31.9611 22.7303 31.554 22.4294 31.2538C22.1286 30.9536 21.7206 30.785 21.2951 30.785C20.8696 30.785 20.4616 30.9536 20.1608 31.2538C19.8599 31.554 19.6909 31.9611 19.6909 32.3856V43.5899C19.6909 44.0144 19.8599 44.4215 20.1608 44.7217C20.4616 45.0219 20.8696 45.1905 21.2951 45.1905Z" fill="#262840"/>
<path d="M27.7119 29.1844V43.5899C27.7119 44.0144 27.8809 44.4215 28.1818 44.7217C28.4826 45.0219 28.8906 45.1905 29.3161 45.1905C29.7416 45.1905 30.1496 45.0219 30.4504 44.7217C30.7513 44.4215 30.9203 44.0144 30.9203 43.5899V29.1844C30.9203 28.7599 30.7513 28.3528 30.4504 28.0526C30.1496 27.7524 29.7416 27.5838 29.3161 27.5838C28.8906 27.5838 28.4826 27.7524 28.1818 28.0526C27.8809 28.3528 27.7119 28.7599 27.7119 29.1844Z" fill="#262840"/>
<path d="M35.7329 33.9862V43.5899C35.7329 44.0144 35.9019 44.4215 36.2028 44.7217C36.5036 45.0219 36.9116 45.1905 37.3371 45.1905C37.7626 45.1905 38.1706 45.0219 38.4714 44.7217C38.7723 44.4215 38.9413 44.0144 38.9413 43.5899V33.9862C38.9413 33.5617 38.7723 33.1546 38.4714 32.8544C38.1706 32.5543 37.7626 32.3856 37.3371 32.3856C36.9116 32.3856 36.5036 32.5543 36.2028 32.8544C35.9019 33.1546 35.7329 33.5617 35.7329 33.9862Z" fill="#262840"/>
<path d="M43.7534 27.5838V43.5899C43.7534 44.0144 43.9224 44.4216 44.2233 44.7217C44.5241 45.0219 44.9321 45.1905 45.3576 45.1905C45.7831 45.1905 46.1911 45.0219 46.4919 44.7217C46.7928 44.4216 46.9618 44.0144 46.9618 43.5899V27.5838C46.9618 27.1593 46.7928 26.7522 46.4919 26.452C46.1911 26.1518 45.7831 25.9832 45.3576 25.9832C44.9321 25.9832 44.5241 26.1518 44.2233 26.452C43.9224 26.7522 43.7534 27.1593 43.7534 27.5838Z" fill="#262840"/>
<path d="M21.2948 27.5838C21.7202 27.5837 22.1281 27.415 22.4289 27.1148L28.1815 21.375C28.4873 21.0843 28.8934 20.9222 29.3157 20.9222C29.738 20.9222 30.1441 21.0843 30.4498 21.375L33.9341 24.8515C34.8366 25.7517 36.0605 26.2574 37.3366 26.2574C38.6127 26.2574 39.8366 25.7517 40.7391 24.8515L49.7001 15.9105C49.9923 15.6086 50.154 15.2043 50.1503 14.7846C50.1467 14.3649 49.9779 13.9635 49.6805 13.6667C49.3831 13.3699 48.9807 13.2016 48.5601 13.198C48.1395 13.1943 47.7343 13.3557 47.4317 13.6472L38.4708 22.5866C38.1699 22.8867 37.762 23.0553 37.3366 23.0553C36.9112 23.0553 36.5033 22.8867 36.2025 22.5866L32.7182 19.1117C31.8157 18.2115 30.5918 17.7058 29.3157 17.7058C28.0396 17.7058 26.8157 18.2115 25.9132 19.1117L20.1606 24.8515C19.9363 25.0754 19.7836 25.3605 19.7217 25.671C19.6599 25.9814 19.6916 26.3032 19.813 26.5956C19.9344 26.8881 20.14 27.138 20.4037 27.3139C20.6674 27.4898 20.9775 27.5837 21.2948 27.5838Z" fill="#262840"/>
</svg>
