<svg width="41" height="22" viewBox="0 0 41 22" fill="none" xmlns="http://www.w3.org/2000/svg">
<path d="M2 9.555C1.20195 9.555 0.555 10.2019 0.555 11C0.555 11.7981 1.20195 12.445 2 12.445V9.555ZM40.0218 12.0218C40.5861 11.4575 40.5861 10.5425 40.0218 9.97823L30.8258 0.782307C30.2615 0.217999 29.3466 0.217999 28.7823 0.782307C28.218 1.34661 28.218 2.26154 28.7823 2.82585L36.9565 11L28.7823 19.1742C28.218 19.7385 28.218 20.6534 28.7823 21.2177C29.3466 21.782 30.2615 21.782 30.8258 21.2177L40.0218 12.0218ZM2 12.445H39V9.555H2V12.445Z" fill="#262840"/>
</svg>
