<svg width="63" height="61" viewBox="0 0 63 61" fill="none" xmlns="http://www.w3.org/2000/svg">
<rect width="63" height="61" rx="5.60055" fill="#262840"/>
<path d="M39.1728 24.8477C38.9443 24.3671 38.4795 24.0315 37.9359 23.9628C37.3949 23.8942 36.8539 24.1002 36.5072 24.5095L32.1399 29.6485H29.0095C28.135 29.6485 27.4233 30.3376 27.4233 31.1869C27.4233 32.0362 28.1324 32.7253 29.0095 32.7253H32.8858C33.3585 32.7253 33.8075 32.5193 34.1096 32.1659L37.345 28.3619L41.1372 36.3895C41.3657 36.8701 41.8305 37.2057 42.3741 37.2744C42.9151 37.343 43.4561 37.1371 43.8027 36.7277L47.2036 32.7279H52.2695C53.1466 32.7279 53.8557 32.0388 53.8557 31.1895C53.8557 30.3402 53.1466 29.6511 52.2695 29.6511H46.4552C45.9825 29.6511 45.5334 29.857 45.2314 30.2105L42.965 32.8753L39.1728 24.8477Z" fill="#9598BD"/>
<path d="M50.2121 25.5495V26.1115C50.2121 26.2106 50.2016 26.3073 50.1833 26.3988C50.1517 26.5564 50.0966 26.7039 50.0231 26.8387L50.0204 26.8412C49.7499 27.3193 49.2273 27.6448 48.6233 27.6448C48.0508 27.6448 47.5466 27.3523 47.2682 26.9099C47.1211 26.6785 47.0345 26.4039 47.0345 26.1115V25.8063C47.0397 25.7224 47.0397 25.4376 47.0345 25.3817C46.9347 21.8599 43.652 18.8187 39.3241 18.8187C36.8239 18.8187 34.4893 20.2554 33.0134 22.0862C32.8164 22.3303 32.5669 22.5414 32.2623 22.6482C31.5848 22.8847 30.8652 22.6609 30.4529 22.1422C28.9822 20.2834 26.6239 18.8187 24.1002 18.8187C19.704 18.8187 16.3819 21.9565 16.3819 25.5495C16.3819 28.4279 17.6424 31.1106 19.6725 33.5898C21.7051 36.0741 24.4442 38.2635 27.2096 40.1223C28.2548 40.8266 29.2422 41.4242 30.0852 41.8412C30.9886 42.2887 31.5138 42.4159 31.7108 42.4159C31.9078 42.4159 32.433 42.2887 33.339 41.8412C33.4099 41.8056 33.4835 41.77 33.557 41.7293C34.3501 41.3225 35.2561 40.7656 36.2121 40.1223C37.0656 39.5527 37.9138 38.95 38.7358 38.3118C38.741 38.3118 38.7463 38.3067 38.7489 38.3042C38.9012 38.2075 39.0667 38.1389 39.2348 38.1007C39.865 37.9482 40.5557 38.1872 40.9365 38.7441C41.383 39.395 41.2517 40.257 40.6608 40.7554L40.6529 40.763C40.6345 40.7808 40.6135 40.7986 40.5925 40.8164C39.7364 41.4674 38.8724 42.0802 38.0189 42.6523C37.4306 43.049 36.8397 43.4279 36.2593 43.7712C35.7525 44.0738 35.2561 44.3484 34.7782 44.5849C34.1899 44.8747 33.5465 45.1519 32.9057 45.3197C32.5984 45.4011 32.2912 45.4596 31.9918 45.4799C31.8973 45.4901 31.8027 45.4926 31.7108 45.4926C30.7076 45.4926 29.6046 45.0578 28.6434 44.5849C27.6219 44.0788 26.5057 43.3948 25.4028 42.6523C24.7646 42.2226 24.1212 41.7725 23.4804 41.2996C21.2167 39.634 18.987 37.699 17.1881 35.5045C14.8771 32.682 13.2095 29.3459 13.2095 25.5495C13.2095 20.0088 18.2202 15.7419 24.1002 15.7419C27.1045 15.7419 29.7491 17.0973 31.6609 18.8594C31.6898 18.8848 31.7344 18.8848 31.7607 18.8594C33.6726 17.0973 36.3197 15.7419 39.3241 15.7419C40.4008 15.7419 41.4486 15.8843 42.4413 16.1539C46.8717 17.3464 50.2121 21.0233 50.2121 25.5495Z" fill="white"/>
</svg>
