<svg width="50" height="50" viewBox="0 0 50 50" fill="none" xmlns="http://www.w3.org/2000/svg">
<rect width="50" height="50" rx="5.60055" fill="#262840"/>
<path d="M31.0896 20.3668C30.9083 19.9729 30.5394 19.6978 30.1079 19.6415C29.6786 19.5853 29.2492 19.7541 28.9741 20.0896L25.508 24.3019H23.0235C22.3295 24.3019 21.7646 24.8668 21.7646 25.5629C21.7646 26.259 22.3274 26.8239 23.0235 26.8239H26.0999C26.4751 26.8239 26.8315 26.6551 27.0712 26.3653L29.639 23.2473L32.6486 29.8273C32.83 30.2212 33.1989 30.4963 33.6303 30.5526C34.0597 30.6089 34.489 30.4401 34.7642 30.1045L37.4633 26.826H41.4838C42.18 26.826 42.7427 26.2611 42.7427 25.565C42.7427 24.8688 42.18 24.304 41.4838 24.304H36.8693C36.4941 24.304 36.1377 24.4728 35.898 24.7625L34.0993 26.9469L31.0896 20.3668Z" fill="#9598BD"/>
<path d="M39.8511 20.9413V21.4019C39.8511 21.4832 39.8427 21.5624 39.8282 21.6375C39.8031 21.7667 39.7594 21.8876 39.701 21.998L39.6989 22.0001C39.4843 22.392 39.0695 22.6588 38.5901 22.6588C38.1357 22.6588 37.7356 22.4191 37.5146 22.0564C37.3979 21.8667 37.3291 21.6416 37.3291 21.4019V21.1518C37.3333 21.0831 37.3333 20.8496 37.3291 20.8038C37.2499 17.9171 34.6446 15.4243 31.2098 15.4243C29.2255 15.4243 27.3726 16.6019 26.2013 18.1026C26.045 18.3027 25.847 18.4757 25.6052 18.5632C25.0674 18.757 24.4964 18.5736 24.1691 18.1484C23.0019 16.6248 21.1303 15.4243 19.1273 15.4243C15.6383 15.4243 13.0017 17.9963 13.0017 20.9413C13.0017 23.3007 14.0021 25.4996 15.6132 27.5318C17.2265 29.5681 19.4003 31.3626 21.5951 32.8862C22.4246 33.4636 23.2083 33.9534 23.8773 34.2952C24.5943 34.662 25.0112 34.7662 25.1675 34.7662C25.3238 34.7662 25.7407 34.662 26.4597 34.2952C26.516 34.266 26.5744 34.2368 26.6327 34.2035C27.2622 33.87 27.9812 33.4135 28.7399 32.8862C29.4173 32.4193 30.0905 31.9254 30.7429 31.4022C30.747 31.4022 30.7512 31.3981 30.7533 31.396C30.8742 31.3168 31.0055 31.2605 31.1389 31.2292C31.6391 31.1042 32.1873 31.3001 32.4895 31.7565C32.8438 32.2901 32.7396 32.9967 32.2706 33.4052L32.2644 33.4114C32.2498 33.426 32.2331 33.4406 32.2164 33.4552C31.537 33.9888 30.8513 34.4911 30.1739 34.9601C29.707 35.2852 29.238 35.5957 28.7774 35.8771C28.3752 36.1252 27.9812 36.3503 27.6019 36.5441C27.135 36.7817 26.6244 37.0089 26.1158 37.1464C25.872 37.2131 25.6281 37.2611 25.3905 37.2777C25.3155 37.2861 25.2404 37.2882 25.1675 37.2882C24.3713 37.2882 23.4959 36.9318 22.7331 36.5441C21.9223 36.1293 21.0365 35.5687 20.1611 34.9601C19.6546 34.6078 19.144 34.2389 18.6354 33.8512C16.8388 32.486 15.0693 30.8999 13.6415 29.1012C11.8074 26.7877 10.4839 24.0531 10.4839 20.9413C10.4839 16.3997 14.4607 12.9023 19.1273 12.9023C21.5117 12.9023 23.6105 14.0133 25.1279 15.4576C25.1508 15.4785 25.1862 15.4785 25.2071 15.4576C26.7244 14.0133 28.8254 12.9023 31.2098 12.9023C32.0643 12.9023 32.8959 13.0191 33.6838 13.24C37.1999 14.2175 39.8511 17.2313 39.8511 20.9413Z" fill="white"/>
</svg>
