<svg width="50" height="50" viewBox="0 0 50 50" fill="none" xmlns="http://www.w3.org/2000/svg">
<rect width="50" height="50" rx="5.60055" fill="#DCDCDC"/>
<path d="M30.5754 18.0096C31.375 16.8465 32.7275 16.0823 34.2634 16.0823C36.7197 16.0823 38.7107 18.0393 38.7107 20.4536C38.7107 22.8679 36.7197 24.8249 34.2634 24.8249H25.9941" stroke="#9598BD" stroke-width="3" stroke-miterlimit="10" stroke-linecap="round" stroke-linejoin="round"/>
<path d="M17.4763 14.8306C18.2745 13.6675 19.6244 12.9033 21.1574 12.9033C23.6091 12.9033 25.5964 14.8603 25.5964 17.2746C25.5964 19.6889 23.6091 21.6459 21.1574 21.6459H11.2903" stroke="#262840" stroke-width="3" stroke-miterlimit="10" stroke-linecap="round" stroke-linejoin="round"/>
<path d="M22.6339 35.6141C23.4328 36.7773 24.7843 37.5414 26.3188 37.5414C28.7731 37.5414 30.7625 35.5844 30.7625 33.1701C30.7625 30.7558 28.7731 28.7988 26.3188 28.7988H11.2903" stroke="#262840" stroke-width="3" stroke-miterlimit="10" stroke-linecap="round" stroke-linejoin="round"/>
</svg>
