<svg width="63" height="61" viewBox="0 0 63 61" fill="none" xmlns="http://www.w3.org/2000/svg">
<rect width="63" height="61" rx="5.60055" fill="#DCDCDC"/>
<path d="M31.4998 47.2258C40.4789 47.2258 47.7578 40.1779 47.7578 31.4839C47.7578 22.7898 40.4789 15.7419 31.4998 15.7419C22.5207 15.7419 15.2417 22.7898 15.2417 31.4839C15.2417 40.1779 22.5207 47.2258 31.4998 47.2258Z" stroke="#9598BD" stroke-width="3" stroke-miterlimit="10" stroke-linecap="round"/>
<path d="M31.9185 39.7601C36.6392 39.7601 40.466 36.0548 40.466 31.484C40.466 26.9132 36.6392 23.2079 31.9185 23.2079C27.1979 23.2079 23.3711 26.9132 23.3711 31.484C23.3711 36.0548 27.1979 39.7601 31.9185 39.7601Z" stroke="#9598BD" stroke-width="3" stroke-miterlimit="10" stroke-linecap="round"/>
<path d="M32.2621 32.9597C33.2442 32.9597 34.0403 32.1888 34.0403 31.2379C34.0403 30.287 33.2442 29.5161 32.2621 29.5161C31.28 29.5161 30.4839 30.287 30.4839 31.2379C30.4839 32.1888 31.28 32.9597 32.2621 32.9597Z" fill="#262840"/>
<path d="M32.2387 9.20943L36.3534 17.6488C36.8748 18.7197 36.799 19.9774 36.1448 20.9811L33.468 25.0997C33.2247 25.4731 32.8012 25.6995 32.3461 25.6995C31.6129 25.6995 31.022 25.1242 31.022 24.4174V9.47564C31.022 8.81469 31.9479 8.61273 32.2387 9.20943Z" fill="#D9D9D9" stroke="#262840" stroke-width="2.5" stroke-miterlimit="10" stroke-linecap="round" stroke-linejoin="round"/>
<path d="M51.1183 42.0457L41.5269 41.143C40.307 41.0298 39.2357 40.3199 38.6795 39.2642L36.3978 34.9283C36.1924 34.5366 36.2082 34.0684 36.442 33.689C36.8181 33.0801 37.6303 32.8812 38.2592 33.2453L51.5134 40.9013C52.0949 41.2348 51.7978 42.11 51.1183 42.0457Z" fill="#D9D9D9" stroke="#262840" stroke-width="2.5" stroke-miterlimit="10" stroke-linecap="round" stroke-linejoin="round"/>
<path d="M12.3224 40.9198L18.0393 33.4076C18.7662 32.4529 19.945 31.9235 21.1648 32.0031L26.1802 32.3274C26.6353 32.358 27.043 32.6089 27.2579 32.9976C27.6055 33.6218 27.3653 34.399 26.7206 34.7356L13.1409 41.8347C12.5404 42.1468 11.9179 41.4522 12.3224 40.9198Z" fill="#D9D9D9" stroke="#262840" stroke-width="2.5" stroke-miterlimit="10" stroke-linecap="round" stroke-linejoin="round"/>
</svg>
