<svg width="50" height="50" viewBox="0 0 50 50" fill="none" xmlns="http://www.w3.org/2000/svg">
<rect width="50" height="50" rx="5.60055" fill="#DCDCDC"/>
<path d="M25 38.7098C32.1263 38.7098 37.9033 32.9328 37.9033 25.8065C37.9033 18.6803 32.1263 12.9033 25 12.9033C17.8738 12.9033 12.0968 18.6803 12.0968 25.8065C12.0968 32.9328 17.8738 38.7098 25 38.7098Z" stroke="#9598BD" stroke-width="2.5" stroke-miterlimit="10" stroke-linecap="round"/>
<path d="M25.3321 32.5898C29.0786 32.5898 32.1158 29.5527 32.1158 25.8061C32.1158 22.0596 29.0786 19.0225 25.3321 19.0225C21.5856 19.0225 18.5484 22.0596 18.5484 25.8061C18.5484 29.5527 21.5856 32.5898 25.3321 32.5898Z" stroke="#9598BD" stroke-width="2.5" stroke-miterlimit="10" stroke-linecap="round"/>
<path d="M25.6048 27.0159C26.3843 27.0159 27.0161 26.3841 27.0161 25.6047C27.0161 24.8252 26.3843 24.1934 25.6048 24.1934C24.8254 24.1934 24.1935 24.8252 24.1935 25.6047C24.1935 26.3841 24.8254 27.0159 25.6048 27.0159Z" fill="#262840"/>
<path d="M25.5866 7.54845L28.8522 14.4659C29.266 15.3438 29.2058 16.3747 28.6866 17.1973L26.5622 20.5733C26.3691 20.8793 26.033 21.0649 25.6718 21.0649C25.0899 21.0649 24.6209 20.5934 24.6209 20.014V7.76666C24.6209 7.2249 25.3558 7.05936 25.5866 7.54845Z" fill="#D9D9D9" stroke="#262840" stroke-width="2.5" stroke-miterlimit="10" stroke-linecap="round" stroke-linejoin="round"/>
<path d="M40.5702 34.4634L32.958 33.7235C31.9898 33.6307 31.1396 33.0488 30.6981 32.1834L28.8872 28.6294C28.7242 28.3083 28.7367 27.9246 28.9223 27.6136C29.2208 27.1145 29.8654 26.9514 30.3645 27.2499L40.8837 33.5253C41.3452 33.7987 41.1095 34.516 40.5702 34.4634Z" fill="#D9D9D9" stroke="#262840" stroke-width="2.5" stroke-miterlimit="10" stroke-linecap="round" stroke-linejoin="round"/>
<path d="M9.77983 33.5408L14.3171 27.3833C14.894 26.6007 15.8295 26.1668 16.7977 26.232L20.7781 26.4979C21.1393 26.523 21.4628 26.7286 21.6334 27.0472C21.9093 27.5588 21.7187 28.1959 21.207 28.4718L10.4294 34.2907C9.9529 34.5466 9.45879 33.9772 9.77983 33.5408Z" fill="#D9D9D9" stroke="#262840" stroke-width="2.5" stroke-miterlimit="10" stroke-linecap="round" stroke-linejoin="round"/>
</svg>
