<svg width="62" height="62" viewBox="0 0 62 62" fill="none" xmlns="http://www.w3.org/2000/svg">
<rect width="62" height="62" rx="5.60055" fill="#262840"/>
<rect x="14.4645" y="37.2988" width="21.0797" height="7.76621" rx="3.88311" stroke="#9598BD" stroke-width="2.4"/>
<rect x="11.9395" y="21.7661" width="21.0797" height="7.76621" rx="3.88311" stroke="#9598BD" stroke-width="2.4"/>
<rect x="19.2083" y="14" width="21.0797" height="7.76621" rx="3.88311" stroke="#9598BD" stroke-width="2.4"/>
<rect x="17.7928" y="29.5322" width="21.0797" height="7.76621" rx="3.88311" stroke="#9598BD" stroke-width="2.4"/>
<circle cx="41.5697" cy="36.3611" r="9.4304" fill="#C9CBE4" stroke="white" stroke-width="2.4"/>
<path d="M41.5872 39.3229C42.0125 39.3229 42.3838 39.2352 42.7011 39.0596C43.0252 38.8774 43.2783 38.6107 43.4606 38.2597H44.8479C44.5846 38.9347 44.1627 39.4546 43.5821 39.8191C43.0015 40.1837 42.3366 40.3659 41.5872 40.3659C40.7974 40.3659 40.0953 40.1533 39.481 39.728C38.8666 39.2959 38.4379 38.7221 38.1949 38.0065H37.2633V37.2166H38.0126C37.9991 37.0276 37.9924 36.8791 37.9924 36.7711C37.9924 36.6631 37.9991 36.5146 38.0126 36.3255H37.2633V35.5357H38.1949C38.4379 34.8201 38.8666 34.2496 39.481 33.8243C40.0953 33.3923 40.7974 33.1762 41.5872 33.1762C42.3298 33.1762 42.9914 33.3619 43.572 33.7332C44.1593 34.0977 44.5846 34.6176 44.8479 35.2926H43.4606C43.2783 34.9416 43.0252 34.6783 42.7011 34.5028C42.3838 34.3205 42.0125 34.2294 41.5872 34.2294C41.0944 34.2294 40.659 34.3441 40.2809 34.5737C39.9096 34.8032 39.6261 35.1239 39.4303 35.5357H41.5872V36.3255H39.2075C39.1873 36.4673 39.1772 36.6158 39.1772 36.7711C39.1772 36.9264 39.1873 37.0749 39.2075 37.2166H41.5872V38.0065H39.4303C39.6261 38.4251 39.9096 38.7491 40.2809 38.9786C40.659 39.2082 41.0944 39.3229 41.5872 39.3229Z" fill="#262840"/>
</svg>
