<svg width="50" height="50" viewBox="0 0 50 50" fill="none" xmlns="http://www.w3.org/2000/svg">
<rect width="50" height="50" rx="5.60055" fill="#262840"/>
<rect x="12" y="30.2122" width="16.697" height="6.15152" rx="3.07576" stroke="#9598BD" stroke-width="2.4"/>
<rect x="10" y="17.9092" width="16.697" height="6.15152" rx="3.07576" stroke="#9598BD" stroke-width="2.4"/>
<rect x="15.7576" y="11.7576" width="16.697" height="6.15152" rx="3.07576" stroke="#9598BD" stroke-width="2.4"/>
<rect x="14.6364" y="24.0605" width="16.697" height="6.15152" rx="3.07576" stroke="#9598BD" stroke-width="2.4"/>
<circle cx="33.4697" cy="29.4697" r="7.4697" fill="#C9CBE4" stroke="white" stroke-width="2.4"/>
<path d="M33.3331 31.2863C33.6421 31.2863 33.9119 31.2225 34.1425 31.095C34.3779 30.9625 34.5619 30.7688 34.6943 30.5137H35.7023C35.511 31.0042 35.2045 31.3819 34.7826 31.6468C34.3608 31.9117 33.8776 32.0441 33.3331 32.0441C32.7592 32.0441 32.2491 31.8896 31.8027 31.5806C31.3563 31.2667 31.0448 30.8497 30.8682 30.3298H30.1913V29.7559H30.7358C30.726 29.6185 30.7211 29.5106 30.7211 29.4321C30.7211 29.3536 30.726 29.2457 30.7358 29.1084H30.1913V28.5344H30.8682C31.0448 28.0145 31.3563 27.6 31.8027 27.291C32.2491 26.977 32.7592 26.8201 33.3331 26.8201C33.8727 26.8201 34.3534 26.955 34.7753 27.2247C35.202 27.4896 35.511 27.8673 35.7023 28.3579H34.6943C34.5619 28.1028 34.3779 27.9115 34.1425 27.7839C33.9119 27.6515 33.6421 27.5853 33.3331 27.5853C32.975 27.5853 32.6586 27.6687 32.3839 27.8355C32.1142 28.0022 31.9081 28.2352 31.7659 28.5344H33.3331V29.1084H31.604C31.5893 29.2114 31.5819 29.3193 31.5819 29.4321C31.5819 29.5449 31.5893 29.6528 31.604 29.7559H33.3331V30.3298H31.7659C31.9081 30.6339 32.1142 30.8693 32.3839 31.0361C32.6586 31.2029 32.975 31.2863 33.3331 31.2863Z" fill="#262840"/>
</svg>
