<svg width="50" height="50" viewBox="0 0 50 50" fill="none" xmlns="http://www.w3.org/2000/svg">
<rect width="50" height="50" rx="5.60055" fill="#DCDCDC"/>
<path d="M37.9482 36.7315H17.0864C16.1643 36.7315 15.2799 36.366 14.6279 35.7154C13.9758 35.0648 13.6095 34.1824 13.6095 33.2623V12.4469C13.6095 12.1402 13.4874 11.8461 13.27 11.6292C13.0527 11.4124 12.7579 11.2905 12.4505 11.2905C12.1431 11.2905 11.8483 11.4124 11.631 11.6292C11.4136 11.8461 11.2915 12.1402 11.2915 12.4469V33.2623C11.2933 34.7952 11.9045 36.2648 12.9908 37.3488C14.0772 38.4327 15.5501 39.0425 17.0864 39.0443H37.9482C38.2556 39.0443 38.5504 38.9225 38.7678 38.7056C38.9851 38.4888 39.1072 38.1946 39.1072 37.8879C39.1072 37.5812 38.9851 37.2871 38.7678 37.0702C38.5504 36.8534 38.2556 36.7315 37.9482 36.7315Z" fill="#9598BD"/>
<path d="M18.2469 34.4187C18.5543 34.4187 18.8491 34.2968 19.0664 34.08C19.2838 33.8631 19.4059 33.569 19.4059 33.2623V25.1674C19.4059 24.8607 19.2838 24.5666 19.0664 24.3497C18.8491 24.1328 18.5543 24.011 18.2469 24.011C17.9395 24.011 17.6447 24.1328 17.4274 24.3497C17.21 24.5666 17.0879 24.8607 17.0879 25.1674V33.2623C17.0879 33.569 17.21 33.8631 17.4274 34.08C17.6447 34.2968 17.9395 34.4187 18.2469 34.4187Z" fill="#262840"/>
<path d="M22.8811 22.8544V33.2621C22.8811 33.5688 23.0032 33.8629 23.2206 34.0798C23.4379 34.2967 23.7327 34.4185 24.0401 34.4185C24.3475 34.4185 24.6423 34.2967 24.8596 34.0798C25.077 33.8629 25.1991 33.5688 25.1991 33.2621V22.8544C25.1991 22.5477 25.077 22.2536 24.8596 22.0367C24.6423 21.8198 24.3475 21.698 24.0401 21.698C23.7327 21.698 23.4379 21.8198 23.2206 22.0367C23.0032 22.2536 22.8811 22.5477 22.8811 22.8544Z" fill="#262840"/>
<path d="M28.6775 26.3236V33.2621C28.6775 33.5688 28.7996 33.8629 29.017 34.0798C29.2343 34.2967 29.5291 34.4185 29.8365 34.4185C30.1439 34.4185 30.4387 34.2967 30.656 34.0798C30.8734 33.8629 30.9955 33.5688 30.9955 33.2621V26.3236C30.9955 26.0169 30.8734 25.7228 30.656 25.5059C30.4387 25.2891 30.1439 25.1672 29.8365 25.1672C29.5291 25.1672 29.2343 25.2891 29.017 25.5059C28.7996 25.7228 28.6775 26.0169 28.6775 26.3236Z" fill="#262840"/>
<path d="M34.4707 21.6984V33.2625C34.4707 33.5692 34.5928 33.8633 34.8102 34.0802C35.0275 34.2971 35.3223 34.4189 35.6297 34.4189C35.9371 34.4189 36.2319 34.2971 36.4492 34.0802C36.6666 33.8633 36.7887 33.5692 36.7887 33.2625V21.6984C36.7887 21.3917 36.6666 21.0976 36.4492 20.8807C36.2319 20.6638 35.9371 20.542 35.6297 20.542C35.3223 20.542 35.0275 20.6638 34.8102 20.8807C34.5928 21.0976 34.4707 21.3917 34.4707 21.6984Z" fill="#262840"/>
<path d="M18.2466 21.6982C18.554 21.6981 18.8487 21.5762 19.066 21.3593L23.2222 17.2124C23.4431 17.0025 23.7365 16.8853 24.0416 16.8853C24.3467 16.8853 24.6401 17.0025 24.861 17.2124L27.3783 19.7242C28.0303 20.3745 28.9146 20.7399 29.8365 20.7399C30.7585 20.7399 31.6427 20.3745 32.2947 19.7242L38.7689 13.2645C38.98 13.0464 39.0968 12.7543 39.0941 12.451C39.0915 12.1478 38.9696 11.8578 38.7547 11.6434C38.5398 11.429 38.2492 11.3074 37.9453 11.3047C37.6414 11.3021 37.3486 11.4187 37.13 11.6293L30.6559 18.0878C30.4386 18.3046 30.1438 18.4264 29.8365 18.4264C29.5292 18.4264 29.2345 18.3046 29.0171 18.0878L26.4998 15.5773C25.8478 14.9269 24.9635 14.5615 24.0416 14.5615C23.1196 14.5615 22.2354 14.9269 21.5834 15.5773L17.4272 19.7242C17.2652 19.8859 17.1548 20.0919 17.1101 20.3162C17.0654 20.5405 17.0884 20.773 17.1761 20.9843C17.2638 21.1955 17.4123 21.3761 17.6029 21.5032C17.7934 21.6303 18.0174 21.6981 18.2466 21.6982Z" fill="#9598BD"/>
</svg>
