<svg width="63" height="61" viewBox="0 0 63 61" fill="none" xmlns="http://www.w3.org/2000/svg">
<rect width="63" height="61" rx="5.60055" fill="#DCDCDC"/>
<path fill-rule="evenodd" clip-rule="evenodd" d="M35.5358 6.66718C36.237 6.95622 36.6921 7.62278 36.6921 8.36066V25.5349L46.6529 25.5349C47.3289 25.5349 47.9541 25.8825 48.2948 26.4478C48.6355 27.0131 48.6405 27.7111 48.3079 28.2809L47.0608 30.4181C42.331 38.5231 36.299 45.8476 29.1913 52.1167L27.175 53.8951C26.6185 54.3859 25.8153 54.5126 25.1267 54.218C24.4382 53.9235 23.994 53.2633 23.994 52.5344V35.5058H13.7037C12.6538 35.5058 11.8027 34.6817 11.8027 33.6652C11.8027 33.336 11.892 33.0269 12.0484 32.7595C16.5062 24.7801 22.2134 17.5173 28.9673 11.2294L33.4737 7.03391C34.023 6.52248 34.8347 6.37813 35.5358 6.66718ZM16.9595 31.8246L25.8949 31.8246C26.9447 31.8246 27.7958 32.6487 27.7958 33.6652V48.349C33.9259 42.74 39.1802 36.2948 43.392 29.2161L34.7912 29.2161C33.7414 29.2161 32.8903 28.392 32.8903 27.3755V12.6838L31.6024 13.8829C25.8977 19.194 20.9723 25.2312 16.9595 31.8246Z" fill="#262840"/>
</svg>
