<svg width="50" height="50" viewBox="0 0 50 50" fill="none" xmlns="http://www.w3.org/2000/svg">
<rect width="50" height="50" rx="5.60055" fill="#DCDCDC"/>
<path fill-rule="evenodd" clip-rule="evenodd" d="M28.8196 8.97003C29.2898 9.16487 29.595 9.61418 29.595 10.1116L29.595 21.6884H36.2751C36.7284 21.6884 37.1477 21.9227 37.3762 22.3037C37.6047 22.6848 37.608 23.1553 37.385 23.5394L36.5486 24.98C33.3766 30.4435 29.3314 35.3808 24.5647 39.6066L23.2125 40.8054C22.8393 41.1363 22.3007 41.2216 21.8389 41.0231C21.3771 40.8245 21.0792 40.3795 21.0792 39.8882L21.0792 28.4095L14.1781 28.4095C13.4741 28.4095 12.9033 27.8541 12.9033 27.1688C12.9033 26.9469 12.9632 26.7386 13.0681 26.5583C16.0576 21.1796 19.8851 16.2839 24.4145 12.0453L27.4366 9.21724C27.805 8.8725 28.3493 8.77519 28.8196 8.97003Z" fill="#DCDCDC"/>
<path fill-rule="evenodd" clip-rule="evenodd" d="M28.8196 8.97003C29.2898 9.16487 29.595 9.61418 29.595 10.1116L29.595 21.6884H36.2751C36.7284 21.6884 37.1477 21.9227 37.3762 22.3037C37.6047 22.6848 37.608 23.1553 37.385 23.5394L36.5486 24.98C33.3766 30.4435 29.3314 35.3808 24.5647 39.6066L23.2125 40.8054C22.8393 41.1363 22.3007 41.2216 21.8389 41.0231C21.3771 40.8245 21.0792 40.3795 21.0792 39.8882L21.0792 28.4095L14.1781 28.4095C13.4741 28.4095 12.9033 27.8541 12.9033 27.1688C12.9033 26.9469 12.9632 26.7386 13.0681 26.5583C16.0576 21.1796 19.8851 16.2839 24.4145 12.0453L27.4366 9.21724C27.805 8.8725 28.3493 8.77519 28.8196 8.97003ZM16.3616 25.9282L22.354 25.9282C23.0581 25.9282 23.6288 26.4836 23.6288 27.1688L23.6288 37.0669C27.7399 33.286 31.2636 28.9414 34.0882 24.1698L28.3202 24.1698C27.6161 24.1698 27.0454 23.6143 27.0454 22.9291V13.0257L26.1817 13.834C22.3559 17.4141 19.0528 21.4836 16.3616 25.9282Z" fill="#262840"/>
</svg>
