<svg width="63" height="61" viewBox="0 0 63 61" fill="none" xmlns="http://www.w3.org/2000/svg">
<rect width="63" height="61" rx="5.60055" fill="#262840"/>
<path d="M38.5248 21.9717C39.5324 20.5527 41.2365 19.6204 43.1717 19.6204C46.2666 19.6204 48.7753 22.0079 48.7753 24.9534C48.7753 27.8989 46.2666 30.2864 43.1717 30.2864H32.7524" stroke="#9598BD" stroke-width="3" stroke-miterlimit="10" stroke-linecap="round" stroke-linejoin="round"/>
<path d="M22.02 18.0932C23.0256 16.6742 24.7266 15.7419 26.6581 15.7419C29.7473 15.7419 32.2513 18.1295 32.2513 21.0749C32.2513 24.0204 29.7473 26.4079 26.6581 26.4079H14.2256" stroke="white" stroke-width="3" stroke-miterlimit="10" stroke-linecap="round" stroke-linejoin="round"/>
<path d="M28.5185 43.4492C29.5252 44.8682 31.228 45.8005 33.1615 45.8005C36.2539 45.8005 38.7605 43.413 38.7605 40.4675C38.7605 37.5221 36.2539 35.1345 33.1615 35.1345H14.2256" stroke="white" stroke-width="3" stroke-miterlimit="10" stroke-linecap="round" stroke-linejoin="round"/>
</svg>
