<svg width="50" height="50" viewBox="0 0 50 50" fill="none" xmlns="http://www.w3.org/2000/svg">
<rect width="50" height="50" rx="5.60055" fill="#262840"/>
<path d="M30.5753 18.0093C31.375 16.8462 32.7275 16.082 34.2633 16.082C36.7196 16.082 38.7106 18.039 38.7106 20.4533C38.7106 22.8677 36.7196 24.8246 34.2633 24.8246H25.9941" stroke="#9598BD" stroke-width="2.5" stroke-miterlimit="10" stroke-linecap="round" stroke-linejoin="round"/>
<path d="M17.4764 14.8296C18.2745 13.6665 19.6245 12.9023 21.1574 12.9023C23.6091 12.9023 25.5964 14.8593 25.5964 17.2736C25.5964 19.688 23.6091 21.645 21.1574 21.645H11.2903" stroke="white" stroke-width="2.5" stroke-miterlimit="10" stroke-linecap="round" stroke-linejoin="round"/>
<path d="M22.6339 35.6141C23.4329 36.7773 24.7843 37.5414 26.3189 37.5414C28.7731 37.5414 30.7625 35.5844 30.7625 33.1701C30.7625 30.7558 28.7731 28.7988 26.3189 28.7988H11.2903" stroke="white" stroke-width="2.5" stroke-miterlimit="10" stroke-linecap="round" stroke-linejoin="round"/>
</svg>
